HIERARCHY
ROOT Bip001_Pelvis
{
  OFFSET 32.8599 95.8771 -27.9544
  CHANNELS 6 Xposition Yposition Zposition Zrotation Xrotation Yrotation
  JOINT Bip001_Spine
  {
    OFFSET 1.4188e-005 10.2191 -0.0116013
    CHANNELS 3 Zrotation Xrotation Yrotation
    JOINT Bip001_L_Thigh
    {
      OFFSET 11.0458 -10.2191 0.0116197
      CHANNELS 3 Zrotation Xrotation Yrotation
      JOINT Bip001_L_Calf
      {
        OFFSET -0.707118 -44.0221 0.360014
        CHANNELS 3 Zrotation Xrotation Yrotation
        JOINT Bip001_L_Foot
        {
          OFFSET -0.651902 -40.5938 -3.56146
          CHANNELS 3 Zrotation Xrotation Yrotation
          JOINT Bip001_L_Toe0
          {
            OFFSET 0.0530839 -10.2181 13.1504
            CHANNELS 3 Zrotation Xrotation Yrotation
            End Site
            {
              OFFSET -1.02532e-005 0 7.55606
            }
          }
        }
      }
    }
    JOINT Bip001_R_Thigh
    {
      OFFSET -11.0458 -10.2191 0.0115893
      CHANNELS 3 Zrotation Xrotation Yrotation
      JOINT Bip001_R_Calf
      {
        OFFSET 0.706994 -44.0221 0.35984
        CHANNELS 3 Zrotation Xrotation Yrotation
        JOINT Bip001_R_Foot
        {
          OFFSET 0.651787 -40.5938 -3.5613
          CHANNELS 3 Zrotation Xrotation Yrotation
          JOINT Bip001_R_Toe0
          {
            OFFSET -0.0531479 -10.2181 13.1504
            CHANNELS 3 Zrotation Xrotation Yrotation
            End Site
            {
              OFFSET -1.02894e-005 0 7.55606
            }
          }
        }
      }
    }
    JOINT Bip001_Spine1
    {
      OFFSET 1.87041e-005 14.5736 1.08638
      CHANNELS 3 Zrotation Xrotation Yrotation
      JOINT Bip001_Spine2
      {
        OFFSET 2.24614e-005 14.5058 -1.69078
        CHANNELS 3 Zrotation Xrotation Yrotation
        JOINT Bip001_Neck
        {
          OFFSET 2.20278e-005 15.3945 -0.489414
          CHANNELS 3 Zrotation Xrotation Yrotation
          JOINT Bip001_L_Clavicle
          {
            OFFSET 6.06036 -0.000579998 0.00836775
            CHANNELS 3 Zrotation Xrotation Yrotation
            JOINT Bip001_L_UpperArm
            {
              OFFSET 11.5509 -0.0600302 0.00193952
              CHANNELS 3 Zrotation Xrotation Yrotation
              JOINT Bip001_L_Forearm
              {
                OFFSET 25.9523 0.0806089 -2.15551
                CHANNELS 3 Zrotation Xrotation Yrotation
                JOINT Bip001_L_Hand
                {
                  OFFSET 32.2475 0.153767 1.63968
                  CHANNELS 3 Zrotation Xrotation Yrotation
                  JOINT Bip001_L_Finger0
                  {
                    OFFSET 6.04639 -2.20976 5.90322
                    CHANNELS 3 Zrotation Xrotation Yrotation
                    End Site
                    {
                      OFFSET 4.22375 -1.43895 0.606486
                    }
                  }
                  JOINT Bip001_L_Finger1
                  {
                    OFFSET 11.0826 -0.704819 -0.198153
                    CHANNELS 3 Zrotation Xrotation Yrotation
                    End Site
                    {
                      OFFSET 6.20027 -0.397518 -0.0787166
                    }
                  }
                }
              }
            }
          }
          JOINT Bip001_R_Clavicle
          {
            OFFSET -6.06036 -0.000563197 0.00835105
            CHANNELS 3 Zrotation Xrotation Yrotation
            JOINT Bip001_R_UpperArm
            {
              OFFSET -11.5509 -0.0599978 0.00190698
              CHANNELS 3 Zrotation Xrotation Yrotation
              JOINT Bip001_R_Forearm
              {
                OFFSET -25.9523 0.0806819 -2.1559
                CHANNELS 3 Zrotation Xrotation Yrotation
                JOINT Bip001_R_Hand
                {
                  OFFSET -32.2476 0.153857 1.63991
                  CHANNELS 3 Zrotation Xrotation Yrotation
                  JOINT Bip001_R_Finger0
                  {
                    OFFSET -6.04642 -2.20975 5.9032
                    CHANNELS 3 Zrotation Xrotation Yrotation
                    End Site
                    {
                      OFFSET -4.22376 -1.43894 0.606473
                    }
                  }
                  JOINT Bip001_R_Finger1
                  {
                    OFFSET -11.0826 -0.70479 -0.198183
                    CHANNELS 3 Zrotation Xrotation Yrotation
                    End Site
                    {
                      OFFSET -6.20028 -0.397501 -0.0787337
                    }
                  }
                }
              }
            }
          }
          JOINT Bip001_Head
          {
            OFFSET 1.09673e-005 11.2744 2.05948
            CHANNELS 3 Zrotation Xrotation Yrotation
            End Site
            {
              OFFSET 2.89576e-005 20.8808 -2.77728e-005
            }
          }
        }
      }
    }
  }
}
MOTION
Frames:	9
Frame Time:	0.04
33.2957 95.9169 -28.5152 0.426152 -0.0856546 2.71808 -0.231906 1.91999 0.0800917 4.68614 -3.08749 7.14683 -0.454337 6.7939 -12.027 5.32653 -1.865 -0.181134 -1.34579 -5.04892 2.67778 -3.36962 -2.98057 -0.946086 0.340548 10.46 0.197561 -6.11115 -9.17475 0.332514 2.20937 -7.47872 2.26536 -0.469729 3.83968 0.168287 -0.470553 3.83968 0.168299 0.81946 -9.03257 -3.78531 -25.6214 8.78869 3.44721 -56.7053 44.9663 3.6651 17.5951 3.19824 -21.568 8.35913 2.03906 -4.11735 3.18055e-015 -6.36111e-015 3.18055e-015 3.53113e-031 -3.18056e-015 6.36111e-015 18.9875 18.4895 28.9728 45.7869 -4.30065 26.2114 -12.551 -2.91934 93.0999 -70.329 27.1956 48.6369 1.59028e-015 3.18055e-015 -2.38542e-015 1.32417e-031 3.18056e-015 -2.38542e-015 -0.337484 -2.82991 -3.40088 
33.2794 95.9127 -28.5226 0.484598 -0.177019 2.52754 -0.234424 1.9398 0.120038 4.63111 -2.88625 7.18695 -0.449541 6.58359 -12.0264 5.09043 -1.83859 -0.174233 -1.464 -5.07134 2.74661 -3.44753 -2.99251 -1.03263 0.34178 10.5811 0.213029 -6.03622 -9.27889 0.565871 2.19713 -7.42279 2.2361 -0.472082 3.87909 0.248086 -0.472082 3.87911 0.248088 1.03489 -9.39145 -3.85882 -25.9656 9.09335 3.55131 -56.7419 43.7785 3.65168 17.608 3.72618 -21.8427 9.01823 2.03396 -4.31435 6.36111e-015 1.27222e-014 -0 3.18055e-015 3.18056e-015 1.59028e-015 19.8715 18.8646 27.7121 44.8372 -4.05369 23.2076 -14.1012 -0.0721177 94.2213 -70.084 24.5491 45.8094 -0 0 7.95139e-016 -0 0 1.59028e-015 -0.616474 -2.80366 -3.36136 
33.2631 95.9098 -28.5157 0.528219 -0.168593 2.59489 -0.260198 1.93384 0.000118869 4.59884 -2.81469 6.85298 -0.477395 6.41717 -11.6902 5.2904 -1.61775 -0.187864 -1.40154 -5.19145 2.69998 -3.46418 -3.01971 -1.00337 0.366044 10.6611 0.23045 -6.06927 -9.34412 0.569208 2.20165 -7.43815 2.23619 -0.523384 3.86758 0.00936284 -0.523384 3.86758 0.00936367 0.749858 -9.45671 -3.58782 -25.6312 9.13896 3.85787 -56.8752 43.1189 3.77187 17.6813 3.85634 -22.2186 9.30536 1.929 -4.40317 6.36111e-015 9.54166e-015 -0 3.18055e-015 6.36111e-015 1.59028e-015 21.804 19.1794 26.7436 43.3978 -4.25829 18.4857 -13.5676 1.22837 95.6674 -69.0928 23.5611 45.5523 0 0 -3.18055e-015 0 0 -3.18055e-015 -0.246911 -2.98218 -3.24539 
33.1885 95.9062 -28.5183 0.434524 -0.101474 2.85316 -0.26882 1.91086 -0.117022 4.82548 -2.98309 6.42143 -0.644429 6.57478 -11.3221 5.29448 -1.68656 -0.184804 -1.37915 -5.21078 2.66297 -3.2795 -2.93967 -0.819775 0.383031 10.4764 0.250617 -6.21053 -9.25849 0.250637 2.21092 -7.4622 2.23637 -0.534221 3.82226 -0.225108 -0.533341 3.82226 -0.22521 0.691364 -9.44376 -3.45681 -25.3958 9.11587 3.98088 -57.0545 43.5461 3.89395 17.7943 3.50875 -22.2786 9.20434 1.84173 -4.40127 3.18055e-015 0 1.59028e-015 3.18055e-015 0 1.59028e-015 23.4136 19.2332 25.5061 41.5217 -3.04366 12.3001 -12.3381 0.923256 96.0276 -65.6318 22.308 46.0414 -1.59028e-015 3.18055e-015 -0 0 6.36111e-015 -0 -0.0475559 -3.08083 -3.16548 
33.1455 95.9162 -28.4653 0.413977 -0.111798 3.06463 -0.270472 1.93136 -0.103113 4.92538 -2.96137 5.38921 -0.837274 6.47499 -10.5131 5.25823 -1.63455 -0.18577 -1.40587 -5.17249 2.68133 -3.20062 -2.84268 -1.00513 0.336202 10.406 0.214568 -6.2112 -9.23285 0.254723 2.21942 -7.48277 2.23662 -0.540195 3.86319 -0.19718 -0.539913 3.86319 -0.197176 0.956831 -9.53325 -3.62131 -25.6271 9.21201 3.81351 -57.0711 44.2963 3.87604 17.7716 2.93743 -22.1676 9.12845 1.87922 -4.36306 -6.36111e-015 0 1.59028e-015 -6.36111e-015 -3.18056e-015 1.59028e-015 24.7194 19.1211 23.2867 39.6456 0.393227 5.73485 -12.9135 0.776983 94.7207 -62.7283 21.463 44.6131 3.18055e-015 0 3.18055e-015 -3.18055e-015 6.36111e-015 6.36111e-015 -0.280209 -3.13063 -3.22499 
33.1248 95.9097 -28.4041 0.362603 -0.127329 3.21102 -0.271584 1.94241 -0.119124 5.06391 -3.06472 5.16475 -0.950075 6.72482 -10.336 5.13257 -1.89427 -0.171286 -1.45338 -5.01257 2.71534 -3.11684 -2.65606 -0.921428 0.363349 10.146 0.0946928 -6.26958 -9.18641 0.11129 2.23318 -7.54231 2.27423 -0.538723 3.88538 -0.228901 -0.539155 3.88537 -0.229094 1.15351 -9.34789 -3.66331 -25.7785 9.08438 3.52158 -57.1011 44.5878 3.90567 17.6924 2.51297 -22.113 9.10543 1.84401 -4.23633 0 0 -0 0 0 -1.59028e-015 25.1866 18.6703 21.9331 39.7687 4.3635 -1.12308 -14.0897 0.283376 91.0098 -59.6491 21.0105 43.4046 -6.36111e-015 6.36111e-015 -6.36111e-015 -6.36111e-015 6.36111e-015 -6.36111e-015 -0.432028 -3.25013 -3.19541 
33.1469 95.893 -28.2956 0.481591 -0.267654 3.14492 -0.301471 1.98711 -0.16391 4.99587 -2.88223 6.1635 -0.871246 6.78212 -11.1638 4.99347 -2.09948 -0.157777 -1.48473 -4.8839 2.71662 -3.21347 -2.58409 -1.62131 0.189914 10.3497 0.125833 -6.07771 -9.44053 0.802329 2.25838 -7.62013 2.30063 -0.599446 3.97506 -0.31776 -0.598217 3.97506 -0.317376 0.637493 -9.47345 -3.43906 -25.386 9.24829 3.66909 -56.9146 44.5764 3.784 17.4664 2.07388 -22.3168 9.32352 2.37843 -4.04016 -3.18055e-015 3.18055e-015 3.18055e-015 -3.18055e-015 0 3.18055e-015 26.1505 18.5229 20.8192 41.1359 8.10005 -7.33873 -13.4129 -2.02525 85.1547 -53.4949 22.1326 43.2493 -6.36111e-015 6.36111e-015 -0 -9.54166e-015 6.36111e-015 -3.18055e-015 0.120222 -2.85149 -3.19259 
33.1204 95.8927 -28.2419 0.4484 -0.313481 3.10629 -0.312963 2.00348 -0.191473 5.11426 -2.85056 6.06898 -0.946771 6.87964 -10.8977 4.75731 -2.34661 -0.13835 -1.5255 -4.70055 2.75589 -3.07879 -2.50827 -1.97706 -0.0344323 10.3032 0.118504 -5.97231 -9.48409 1.20582 2.26469 -7.65096 2.31559 -0.621856 4.00975 -0.377898 -0.620621 4.00975 -0.378968 0.483668 -9.3442 -3.29778 -25.2327 9.14461 3.67905 -56.8304 44.3616 3.72855 17.8899 2.85278 -22.429 8.94978 1.90363 -4.32076 -3.18055e-015 -3.18055e-015 3.18055e-015 -3.18055e-015 3.18056e-015 1.59028e-015 26.5177 18.0998 19.8879 43.0263 12.4993 -12.4703 -14.5782 -1.85779 77.7665 -48.5376 21.6428 38.1856 7.95139e-016 -1.98785e-015 -9.54166e-015 1.59028e-015 -3.18056e-015 -6.36111e-015 0.330985 -2.85544 -3.14119 
33.0739 95.8959 -28.2126 0.34551 -0.199738 3.14741 -0.290361 1.99186 -0.18527 5.30493 -3.05164 6.01182 -1.05291 7.12512 -10.7956 4.41909 -2.70252 -0.111663 -1.65366 -4.48771 2.84623 -2.92646 -2.56355 -1.84972 -0.0805577 10.2275 0.11984 -6.03037 -9.38362 1.02353 2.26852 -7.68835 2.32741 -0.574792 3.98444 -0.360762 -0.574792 3.98444 -0.360765 0.480047 -9.28918 -3.32858 -25.3923 9.13429 3.50315 -56.7121 44.2443 3.78624 17.8645 2.77086 -22.581 8.89615 1.83377 -4.30092 3.18055e-015 3.18055e-015 -0 -8.82782e-032 3.18056e-015 1.59028e-015 26.3213 17.6397 18.8341 45.7331 16.5201 -15.6024 -14.4558 -2.73154 68.6646 -40.4416 22.1631 32.5469 0 7.55382e-015 -0 0 3.97569e-015 -0 0.254263 -2.74948 -3.15558 
